<svg xmlns="http://www.w3.org/2000/svg" xmlns:xlink="http://www.w3.org/1999/xlink" width="300" zoomAndPan="magnify" viewBox="0 0 224.87999 225" height="300" preserveAspectRatio="xMidYMid meet" version="1.0"><defs><g/><clipPath id="2dbf993b9c"><path d="M 27.058594 26.996094 L 197.96875 26.996094 L 197.96875 197.90625 L 27.058594 197.90625 Z M 27.058594 26.996094 " clip-rule="nonzero"/></clipPath></defs><g clip-path="url(#2dbf993b9c)"><path fill="#7d7d7d" d="M 197.816406 112.375 C 197.816406 91.671875 190.410156 72.671875 178.105469 57.875 C 178.027344 57.746094 177.945312 57.621094 177.847656 57.503906 C 177.738281 57.375 177.617188 57.253906 177.492188 57.144531 C 161.820312 38.714844 138.472656 26.996094 112.4375 26.996094 C 86.402344 26.996094 63.058594 38.714844 47.386719 57.144531 C 47.261719 57.257812 47.140625 57.375 47.03125 57.503906 C 46.933594 57.621094 46.847656 57.746094 46.769531 57.875 C 34.46875 72.671875 27.058594 91.671875 27.058594 112.375 C 27.058594 134.476562 35.503906 154.644531 49.332031 169.824219 C 49.363281 169.863281 49.386719 169.910156 49.417969 169.949219 C 49.585938 170.167969 49.777344 170.359375 49.984375 170.523438 C 65.582031 187.265625 87.808594 197.753906 112.4375 197.753906 C 137.066406 197.753906 159.289062 187.265625 174.886719 170.53125 C 175.09375 170.363281 175.289062 170.171875 175.457031 169.949219 C 175.488281 169.910156 175.515625 169.863281 175.542969 169.824219 C 189.375 154.644531 197.816406 134.476562 197.816406 112.375 Z M 163.566406 158.316406 C 169.324219 145.605469 172.585938 130.945312 172.984375 115.582031 L 191.332031 115.582031 C 190.597656 133.902344 183.589844 150.636719 172.402344 163.691406 C 169.625 161.75 166.671875 159.953125 163.566406 158.316406 Z M 52.472656 163.691406 C 41.285156 150.636719 34.28125 133.902344 33.542969 115.582031 L 51.890625 115.582031 C 52.289062 130.945312 55.550781 145.605469 61.3125 158.316406 C 58.207031 159.953125 55.253906 161.75 52.472656 163.691406 Z M 50.023438 64.0625 C 53.019531 66.335938 56.238281 68.429688 59.648438 70.328125 C 54.921875 82.097656 52.25 95.351562 51.890625 109.167969 L 33.542969 109.167969 C 34.226562 92.222656 40.269531 76.632812 50.023438 64.0625 Z M 191.332031 109.167969 L 172.984375 109.167969 C 172.625 95.351562 169.953125 82.097656 165.230469 70.328125 C 168.636719 68.429688 171.855469 66.335938 174.851562 64.0625 C 184.609375 76.632812 190.652344 92.222656 191.332031 109.167969 Z M 166.570312 109.167969 L 140.375 109.167969 C 140.261719 99.148438 139.617188 89.433594 138.480469 80.382812 C 145.910156 78.699219 152.980469 76.304688 159.492188 73.261719 C 163.679688 83.925781 166.210938 96.148438 166.570312 109.167969 Z M 115.644531 190.207031 L 115.644531 152.742188 C 120.679688 152.886719 125.65625 153.359375 130.503906 154.148438 C 129.496094 159.691406 128.28125 164.863281 126.867188 169.554688 C 123.691406 180.097656 119.605469 187.507812 115.644531 190.207031 Z M 98.007812 169.554688 C 96.597656 164.863281 95.378906 159.691406 94.371094 154.148438 C 99.222656 153.359375 104.195312 152.886719 109.230469 152.742188 L 109.230469 190.207031 C 105.273438 187.507812 101.183594 180.097656 98.007812 169.554688 Z M 109.230469 34.539062 L 109.230469 76.792969 C 103.910156 76.644531 98.671875 76.132812 93.585938 75.273438 C 94.722656 67.949219 96.207031 61.179688 98.007812 55.195312 C 101.183594 44.648438 105.273438 37.242188 109.230469 34.539062 Z M 126.867188 55.195312 C 128.671875 61.179688 130.152344 67.949219 131.289062 75.273438 C 126.207031 76.132812 120.96875 76.644531 115.644531 76.792969 L 115.644531 34.539062 C 119.605469 37.242188 123.691406 44.648438 126.867188 55.195312 Z M 109.230469 83.207031 L 109.230469 109.167969 L 90.914062 109.167969 C 91.027344 99.570312 91.636719 90.277344 92.703125 81.621094 C 98.082031 82.523438 103.617188 83.058594 109.230469 83.207031 Z M 109.230469 115.582031 L 109.230469 146.328125 C 103.851562 146.472656 98.53125 146.976562 93.335938 147.824219 C 91.878906 137.867188 91.046875 126.9375 90.914062 115.582031 Z M 115.644531 146.328125 L 115.644531 115.582031 L 133.960938 115.582031 C 133.828125 126.9375 133 137.867188 131.539062 147.824219 C 126.347656 146.976562 121.023438 146.472656 115.644531 146.328125 Z M 115.644531 109.167969 L 115.644531 83.207031 C 121.261719 83.058594 126.792969 82.523438 132.175781 81.621094 C 133.242188 90.277344 133.851562 99.570312 133.960938 109.167969 Z M 137.582031 74.015625 C 136.402344 66.492188 134.871094 59.523438 133.007812 53.34375 C 130.769531 45.910156 128.171875 39.988281 125.277344 35.65625 C 138.300781 40.289062 149.496094 51.796875 156.9375 67.386719 C 150.949219 70.203125 144.4375 72.433594 137.582031 74.015625 Z M 99.597656 35.65625 C 96.707031 39.988281 94.105469 45.910156 91.867188 53.34375 C 90.007812 59.523438 88.472656 66.492188 87.292969 74.015625 C 80.4375 72.433594 73.925781 70.203125 67.9375 67.386719 C 75.378906 51.796875 86.574219 40.289062 99.597656 35.65625 Z M 86.398438 80.382812 C 85.261719 89.433594 84.617188 99.148438 84.5 109.167969 L 58.308594 109.167969 C 58.667969 96.148438 61.195312 83.925781 65.386719 73.261719 C 71.898438 76.304688 78.964844 78.699219 86.398438 80.382812 Z M 58.308594 115.582031 L 84.5 115.582031 C 84.636719 127.34375 85.503906 138.6875 87.035156 149.03125 C 80.023438 150.582031 73.3125 152.761719 67.085938 155.519531 C 61.882812 143.949219 58.710938 130.277344 58.308594 115.582031 Z M 88.074219 155.359375 C 89.125 161.125 90.394531 166.511719 91.867188 171.402344 C 94.105469 178.839844 96.707031 184.761719 99.597656 189.09375 C 87.6875 184.855469 77.304688 174.871094 69.925781 161.269531 C 75.59375 158.777344 81.695312 156.789062 88.074219 155.359375 Z M 125.277344 189.09375 C 128.171875 184.761719 130.769531 178.839844 133.007812 171.402344 C 134.484375 166.511719 135.75 161.125 136.800781 155.359375 C 143.179688 156.789062 149.285156 158.777344 154.953125 161.269531 C 147.570312 174.871094 137.191406 184.855469 125.277344 189.09375 Z M 137.839844 149.03125 C 139.371094 138.6875 140.242188 127.34375 140.375 115.582031 L 166.570312 115.582031 C 166.164062 130.277344 162.992188 143.949219 157.792969 155.519531 C 151.5625 152.761719 144.851562 150.582031 137.839844 149.03125 Z M 170.71875 59.148438 C 168.1875 61.054688 165.484375 62.820312 162.632812 64.4375 C 160.585938 60.1875 158.253906 56.167969 155.644531 52.433594 C 152.496094 47.925781 149.050781 43.976562 145.375 40.617188 C 155.023438 45.0625 163.632812 51.398438 170.71875 59.148438 Z M 79.503906 40.617188 C 75.824219 43.976562 72.378906 47.925781 69.230469 52.433594 C 66.625 56.167969 64.292969 60.1875 62.242188 64.4375 C 59.390625 62.820312 56.691406 61.054688 54.160156 59.148438 C 61.246094 51.398438 69.851562 45.0625 79.503906 40.617188 Z M 56.882812 168.433594 C 59.1875 166.871094 61.617188 165.410156 64.15625 164.0625 C 65.710938 166.941406 67.402344 169.699219 69.230469 172.316406 C 72.378906 176.824219 75.824219 180.773438 79.503906 184.132812 C 71.058594 180.242188 63.410156 174.902344 56.882812 168.433594 Z M 155.644531 172.316406 C 157.472656 169.699219 159.164062 166.941406 160.71875 164.0625 C 163.257812 165.410156 165.691406 166.871094 167.992188 168.433594 C 161.464844 174.902344 153.820312 180.242188 145.375 184.132812 C 149.050781 180.773438 152.496094 176.824219 155.644531 172.316406 Z M 155.644531 172.316406 " fill-opacity="1" fill-rule="nonzero"/></g><g fill="#000000" fill-opacity="1"><g transform="translate(0, 133.234425)"><g><path d="M 23.027344 -19.925781 C 23.027344 -22.027344 21.375 -23.730469 19.273438 -23.730469 C 17.171875 -23.730469 15.519531 -22.027344 15.519531 -19.925781 C 15.519531 -17.871094 17.171875 -16.167969 19.273438 -16.167969 C 21.375 -16.167969 23.027344 -17.871094 23.027344 -19.925781 Z M 38.546875 -20.074219 C 38.546875 -30.035156 32.089844 -40.046875 19.324219 -40.046875 C 6.359375 -40.046875 0 -30.035156 0 -20.074219 C 0 -10.0625 6.359375 0 19.324219 0 C 32.089844 0 38.546875 -10.0625 38.546875 -20.074219 Z M 31.039062 -19.925781 C 31.039062 -13.464844 27.082031 -7.007812 19.324219 -7.007812 C 11.464844 -7.007812 7.558594 -13.464844 7.558594 -19.925781 C 7.558594 -26.480469 11.464844 -32.988281 19.324219 -32.988281 C 27.082031 -32.988281 31.039062 -26.480469 31.039062 -19.925781 Z M 31.039062 -19.925781 "/></g></g></g><g fill="#000000" fill-opacity="1"><g transform="translate(40.448987, 133.234425)"><g><path d="M 33.140625 -40.046875 L 26.683594 -40.046875 C 26.332031 -40.046875 26.082031 -39.796875 26.082031 -39.597656 L 26.082031 -13.515625 L 7.609375 -39.898438 C 7.558594 -40 7.257812 -40.046875 7.160156 -40.046875 L 0.5 -40.046875 C 0.25 -40.046875 0 -39.796875 0 -39.597656 L 0 -9.613281 L 7.660156 -9.613281 L 7.660156 -26.53125 L 26.082031 -0.148438 C 26.132812 -0.0507812 26.433594 0 26.53125 0 L 33.140625 0 C 33.492188 0 33.691406 -0.25 33.691406 -0.449219 L 33.691406 -39.597656 C 33.691406 -39.796875 33.492188 -40.046875 33.140625 -40.046875 Z M 33.140625 -40.046875 "/></g></g></g><g fill="#000000" fill-opacity="1"><g transform="translate(75.841803, 133.234425)"><g><path d="M 19.023438 -7.457031 L 7.660156 -7.457031 L 7.660156 -16.46875 L 23.378906 -16.46875 C 23.679688 -16.46875 23.929688 -16.71875 23.929688 -16.921875 L 23.929688 -23.277344 C 23.929688 -23.527344 23.679688 -23.730469 23.378906 -23.730469 L 7.660156 -23.730469 L 7.660156 -32.789062 L 19.023438 -32.789062 L 19.023438 -40.046875 L 0.550781 -40.046875 C 0.25 -40.046875 0 -39.796875 0 -39.597656 L 0 -0.449219 C 0 -0.25 0.25 0 0.550781 0 L 19.023438 0 Z M 19.023438 -7.457031 "/></g></g></g><g fill="#000000" fill-opacity="1"><g transform="translate(100.972243, 133.234425)"><g><path d="M 18.371094 -22.226562 C 15.519531 -23.578125 12.714844 -23.578125 12.464844 -23.578125 C 9.910156 -23.578125 7.457031 -25.082031 7.457031 -27.984375 C 7.457031 -31.1875 9.710938 -32.839844 12.464844 -32.839844 C 15.066406 -32.839844 17.269531 -31.488281 17.371094 -28.632812 C 17.371094 -28.484375 17.621094 -28.234375 17.921875 -28.234375 L 24.179688 -28.234375 C 24.53125 -28.234375 24.78125 -28.484375 24.730469 -28.632812 C 24.628906 -35.441406 19.324219 -40.046875 12.464844 -40.046875 C 6.058594 -40.046875 0 -35.492188 0 -27.984375 C 0 -23.328125 2.351562 -19.773438 6.507812 -17.871094 C 9.410156 -16.519531 12.113281 -16.519531 12.464844 -16.519531 C 14.71875 -16.417969 17.472656 -14.617188 17.472656 -11.664062 C 17.472656 -9.011719 15.117188 -7.207031 12.464844 -7.207031 C 12.464844 -7.207031 12.464844 -7.207031 12.414062 -7.207031 L 12.414062 0 C 12.464844 0 12.464844 0 12.464844 0 C 18.871094 0 24.878906 -4.15625 24.878906 -11.664062 C 24.878906 -16.371094 22.578125 -20.273438 18.371094 -22.226562 Z M 18.371094 -22.226562 "/></g></g></g><g fill="#000000" fill-opacity="1"><g transform="translate(127.103846, 133.234425)"><g><path d="M 7.660156 -22.675781 L 7.660156 -39.597656 C 7.660156 -39.796875 7.457031 -40.046875 7.109375 -40.046875 L 0.550781 -40.046875 C 0.25 -40.046875 0 -39.796875 0 -39.597656 L 0 -22.675781 Z M 29.9375 -40.046875 L 23.378906 -40.046875 C 23.078125 -40.046875 22.828125 -39.796875 22.828125 -39.597656 L 22.828125 -14.96875 L 7.660156 -14.96875 L 7.660156 -15.019531 L 0 -15.019531 L 0 -0.449219 C 0 -0.25 0.25 0 0.550781 0 L 7.109375 0 C 7.457031 0 7.660156 -0.25 7.660156 -0.449219 L 7.660156 -7.507812 L 22.828125 -7.507812 L 22.828125 -0.449219 C 22.828125 -0.25 23.078125 0 23.378906 0 L 29.9375 0 C 30.285156 0 30.488281 -0.25 30.488281 -0.449219 L 30.488281 -39.597656 C 30.488281 -39.796875 30.285156 -40.046875 29.9375 -40.046875 Z M 29.9375 -40.046875 "/></g></g></g><g fill="#000000" fill-opacity="1"><g transform="translate(159.142622, 133.234425)"><g><path d="M 23.027344 -19.925781 C 23.027344 -22.027344 21.375 -23.730469 19.273438 -23.730469 C 17.171875 -23.730469 15.519531 -22.027344 15.519531 -19.925781 C 15.519531 -17.871094 17.171875 -16.167969 19.273438 -16.167969 C 21.375 -16.167969 23.027344 -17.871094 23.027344 -19.925781 Z M 38.546875 -20.074219 C 38.546875 -30.035156 32.089844 -40.046875 19.324219 -40.046875 C 6.359375 -40.046875 0 -30.035156 0 -20.074219 C 0 -10.0625 6.359375 0 19.324219 0 C 32.089844 0 38.546875 -10.0625 38.546875 -20.074219 Z M 31.039062 -19.925781 C 31.039062 -13.464844 27.082031 -7.007812 19.324219 -7.007812 C 11.464844 -7.007812 7.558594 -13.464844 7.558594 -19.925781 C 7.558594 -26.480469 11.464844 -32.988281 19.324219 -32.988281 C 27.082031 -32.988281 31.039062 -26.480469 31.039062 -19.925781 Z M 31.039062 -19.925781 "/></g></g></g><g fill="#000000" fill-opacity="1"><g transform="translate(199.591609, 133.234425)"><g><path d="M 8.261719 -25.53125 L 8.261719 -0.449219 C 8.261719 -0.25 8.460938 0 8.8125 0 L 15.269531 0 C 15.617188 0 15.867188 -0.25 15.867188 -0.449219 L 15.867188 -25.53125 Z M 0.550781 -33.191406 L 23.527344 -33.191406 C 23.878906 -33.191406 24.078125 -33.390625 24.078125 -33.640625 L 24.078125 -39.597656 C 24.078125 -39.796875 23.878906 -40.046875 23.527344 -40.046875 L 0.550781 -40.046875 C 0.25 -40.046875 0 -39.796875 0 -39.597656 L 0 -33.640625 C 0 -33.390625 0.25 -33.191406 0.550781 -33.191406 Z M 0.550781 -33.191406 "/></g></g></g></svg>