<svg xmlns="http://www.w3.org/2000/svg" xmlns:xlink="http://www.w3.org/1999/xlink" width="100" zoomAndPan="magnify" viewBox="0 0 75 56.249996" height="75" preserveAspectRatio="xMidYMid meet" version="1.0"><defs><g/><clipPath id="ff131cc2f8"><path d="M 0.492188 19.429688 L 74.503906 19.429688 L 74.503906 36.082031 L 0.492188 36.082031 Z M 0.492188 19.429688 " clip-rule="nonzero"/></clipPath></defs><g clip-path="url(#ff131cc2f8)"><path fill="#ffffff" d="M 0.492188 19.429688 L 74.507812 19.429688 L 74.507812 36.082031 L 0.492188 36.082031 Z M 0.492188 19.429688 " fill-opacity="1" fill-rule="nonzero"/></g><g fill="#000000" fill-opacity="1"><g transform="translate(11.88451, 30.09868)"><g><path d="M 3.613281 -3.867188 L 3.613281 -4.683594 C 3.613281 -4.707031 3.589844 -4.738281 3.546875 -4.738281 L 2.777344 -4.738281 C 1.597656 -4.738281 0 -4.394531 0 -2.367188 C 0 -0.265625 1.617188 0 2.777344 0 L 3.546875 0 C 3.589844 0 3.613281 -0.03125 3.613281 -0.0546875 L 3.613281 -2.953125 L 1.792969 -2.953125 L 1.792969 -2.046875 L 2.707031 -2.046875 L 2.707031 -0.863281 C 1.675781 -0.8125 0.910156 -1.242188 0.910156 -2.367188 C 0.910156 -3.832031 2.132812 -3.890625 2.707031 -3.867188 Z M 3.613281 -3.867188 "/></g></g></g><g fill="#000000" fill-opacity="1"><g transform="translate(15.679928, 30.09868)"><g><path d="M 2.25 -0.882812 L 0.90625 -0.882812 L 0.90625 -1.949219 L 2.765625 -1.949219 C 2.800781 -1.949219 2.832031 -1.976562 2.832031 -2 L 2.832031 -2.753906 C 2.832031 -2.78125 2.800781 -2.804688 2.765625 -2.804688 L 0.90625 -2.804688 L 0.90625 -3.878906 L 2.25 -3.878906 L 2.25 -4.738281 L 0.0664062 -4.738281 C 0.03125 -4.738281 0 -4.707031 0 -4.683594 L 0 -0.0546875 C 0 -0.03125 0.03125 0 0.0664062 0 L 2.25 0 Z M 2.25 -0.882812 "/></g></g></g><g fill="#000000" fill-opacity="1"><g transform="translate(18.65232, 30.09868)"><g><path d="M 3.917969 -4.738281 L 3.15625 -4.738281 C 3.113281 -4.738281 3.085938 -4.707031 3.085938 -4.683594 L 3.085938 -1.597656 L 0.898438 -4.71875 C 0.894531 -4.730469 0.859375 -4.738281 0.847656 -4.738281 L 0.0585938 -4.738281 C 0.03125 -4.738281 0 -4.707031 0 -4.683594 L 0 -1.136719 L 0.90625 -1.136719 L 0.90625 -3.136719 L 3.085938 -0.0195312 C 3.089844 -0.0078125 3.125 0 3.136719 0 L 3.917969 0 C 3.960938 0 3.984375 -0.03125 3.984375 -0.0546875 L 3.984375 -4.683594 C 3.984375 -4.707031 3.960938 -4.738281 3.917969 -4.738281 Z M 3.917969 -4.738281 "/></g></g></g><g fill="#000000" fill-opacity="1"><g transform="translate(22.838531, 30.09868)"><g><path d="M 3.234375 -0.078125 C 2.9375 -0.734375 2.617188 -1.386719 2.320312 -2.054688 C 2.792969 -2.226562 3.191406 -2.605469 3.191406 -3.328125 C 3.191406 -4.726562 1.859375 -4.738281 1.59375 -4.738281 L 0.0585938 -4.738281 C 0.03125 -4.738281 0 -4.707031 0 -4.683594 L 0 -3.878906 L 1.59375 -3.878906 C 1.734375 -3.878906 2.292969 -3.847656 2.292969 -3.328125 C 2.292969 -2.804688 1.789062 -2.78125 1.59375 -2.78125 L 0 -2.78125 L 0 -0.0546875 C 0 -0.03125 0.03125 0 0.0585938 0 L 0.835938 0 C 0.871094 0 0.898438 -0.03125 0.898438 -0.0546875 L 0.898438 -1.914062 L 1.410156 -1.914062 L 2.273438 -0.0351562 C 2.28125 -0.0195312 2.316406 0 2.332031 0 L 3.179688 0 C 3.226562 0 3.25 -0.0351562 3.234375 -0.078125 Z M 3.234375 -0.078125 "/></g></g></g><g fill="#000000" fill-opacity="1"><g transform="translate(26.243163, 30.09868)"><g><path d="M 2.25 -0.882812 L 0.90625 -0.882812 L 0.90625 -1.949219 L 2.765625 -1.949219 C 2.800781 -1.949219 2.832031 -1.976562 2.832031 -2 L 2.832031 -2.753906 C 2.832031 -2.78125 2.800781 -2.804688 2.765625 -2.804688 L 0.90625 -2.804688 L 0.90625 -3.878906 L 2.25 -3.878906 L 2.25 -4.738281 L 0.0664062 -4.738281 C 0.03125 -4.738281 0 -4.707031 0 -4.683594 L 0 -0.0546875 C 0 -0.03125 0.03125 0 0.0664062 0 L 2.25 0 Z M 2.25 -0.882812 "/></g></g></g><g fill="#000000" fill-opacity="1"><g transform="translate(29.215555, 30.09868)"><g/></g></g><g fill="#000000" fill-opacity="1"><g transform="translate(30.695826, 30.09868)"><g><path d="M 3.613281 -3.867188 L 3.613281 -4.683594 C 3.613281 -4.707031 3.589844 -4.738281 3.546875 -4.738281 L 2.777344 -4.738281 C 1.597656 -4.738281 0 -4.394531 0 -2.367188 C 0 -0.265625 1.617188 0 2.777344 0 L 3.546875 0 C 3.589844 0 3.613281 -0.03125 3.613281 -0.0546875 L 3.613281 -2.953125 L 1.792969 -2.953125 L 1.792969 -2.046875 L 2.707031 -2.046875 L 2.707031 -0.863281 C 1.675781 -0.8125 0.910156 -1.242188 0.910156 -2.367188 C 0.910156 -3.832031 2.132812 -3.890625 2.707031 -3.867188 Z M 3.613281 -3.867188 "/></g></g></g><g fill="#000000" fill-opacity="1"><g transform="translate(34.491243, 30.09868)"><g><path d="M 2.25 -0.882812 L 0.90625 -0.882812 L 0.90625 -1.949219 L 2.765625 -1.949219 C 2.800781 -1.949219 2.832031 -1.976562 2.832031 -2 L 2.832031 -2.753906 C 2.832031 -2.78125 2.800781 -2.804688 2.765625 -2.804688 L 0.90625 -2.804688 L 0.90625 -3.878906 L 2.25 -3.878906 L 2.25 -4.738281 L 0.0664062 -4.738281 C 0.03125 -4.738281 0 -4.707031 0 -4.683594 L 0 -0.0546875 C 0 -0.03125 0.03125 0 0.0664062 0 L 2.25 0 Z M 2.25 -0.882812 "/></g></g></g><g fill="#000000" fill-opacity="1"><g transform="translate(37.463635, 30.09868)"><g><path d="M 3.917969 -4.738281 L 3.15625 -4.738281 C 3.113281 -4.738281 3.085938 -4.707031 3.085938 -4.683594 L 3.085938 -1.597656 L 0.898438 -4.71875 C 0.894531 -4.730469 0.859375 -4.738281 0.847656 -4.738281 L 0.0585938 -4.738281 C 0.03125 -4.738281 0 -4.707031 0 -4.683594 L 0 -1.136719 L 0.90625 -1.136719 L 0.90625 -3.136719 L 3.085938 -0.0195312 C 3.089844 -0.0078125 3.125 0 3.136719 0 L 3.917969 0 C 3.960938 0 3.984375 -0.03125 3.984375 -0.0546875 L 3.984375 -4.683594 C 3.984375 -4.707031 3.960938 -4.738281 3.917969 -4.738281 Z M 3.917969 -4.738281 "/></g></g></g><g fill="#000000" fill-opacity="1"><g transform="translate(41.649846, 30.09868)"><g><path d="M 2.25 -0.882812 L 0.90625 -0.882812 L 0.90625 -1.949219 L 2.765625 -1.949219 C 2.800781 -1.949219 2.832031 -1.976562 2.832031 -2 L 2.832031 -2.753906 C 2.832031 -2.78125 2.800781 -2.804688 2.765625 -2.804688 L 0.90625 -2.804688 L 0.90625 -3.878906 L 2.25 -3.878906 L 2.25 -4.738281 L 0.0664062 -4.738281 C 0.03125 -4.738281 0 -4.707031 0 -4.683594 L 0 -0.0546875 C 0 -0.03125 0.03125 0 0.0664062 0 L 2.25 0 Z M 2.25 -0.882812 "/></g></g></g><g fill="#000000" fill-opacity="1"><g transform="translate(44.622238, 30.09868)"><g><path d="M 3.234375 -0.078125 C 2.9375 -0.734375 2.617188 -1.386719 2.320312 -2.054688 C 2.792969 -2.226562 3.191406 -2.605469 3.191406 -3.328125 C 3.191406 -4.726562 1.859375 -4.738281 1.59375 -4.738281 L 0.0585938 -4.738281 C 0.03125 -4.738281 0 -4.707031 0 -4.683594 L 0 -3.878906 L 1.59375 -3.878906 C 1.734375 -3.878906 2.292969 -3.847656 2.292969 -3.328125 C 2.292969 -2.804688 1.789062 -2.78125 1.59375 -2.78125 L 0 -2.78125 L 0 -0.0546875 C 0 -0.03125 0.03125 0 0.0585938 0 L 0.835938 0 C 0.871094 0 0.898438 -0.03125 0.898438 -0.0546875 L 0.898438 -1.914062 L 1.410156 -1.914062 L 2.273438 -0.0351562 C 2.28125 -0.0195312 2.316406 0 2.332031 0 L 3.179688 0 C 3.226562 0 3.25 -0.0351562 3.234375 -0.078125 Z M 3.234375 -0.078125 "/></g></g></g><g fill="#000000" fill-opacity="1"><g transform="translate(48.026871, 30.09868)"><g><path d="M 3.71875 -0.0703125 L 1.917969 -4.703125 C 1.902344 -4.75 1.816406 -4.75 1.800781 -4.703125 L 0.0078125 -0.0703125 C -0.0117188 -0.0351562 0.0117188 0 0.0664062 0 L 0.875 0 C 0.898438 0 0.929688 -0.0117188 0.933594 -0.0351562 L 1.859375 -2.675781 L 2.792969 -0.0351562 C 2.800781 -0.0117188 2.832031 0 2.847656 0 L 3.664062 0 C 3.707031 0 3.734375 -0.0351562 3.71875 -0.0703125 Z M 3.71875 -0.0703125 "/></g></g></g><g fill="#000000" fill-opacity="1"><g transform="translate(51.934795, 30.09868)"><g><path d="M 0.976562 -3.019531 L 0.976562 -0.0546875 C 0.976562 -0.03125 1 0 1.042969 0 L 1.804688 0 C 1.847656 0 1.878906 -0.03125 1.878906 -0.0546875 L 1.878906 -3.019531 Z M 0.0664062 -3.925781 L 2.78125 -3.925781 C 2.824219 -3.925781 2.847656 -3.949219 2.847656 -3.980469 L 2.847656 -4.683594 C 2.847656 -4.707031 2.824219 -4.738281 2.78125 -4.738281 L 0.0664062 -4.738281 C 0.03125 -4.738281 0 -4.707031 0 -4.683594 L 0 -3.980469 C 0 -3.949219 0.03125 -3.925781 0.0664062 -3.925781 Z M 0.0664062 -3.925781 "/></g></g></g><g fill="#000000" fill-opacity="1"><g transform="translate(54.924947, 30.09868)"><g><path d="M 2.722656 -2.355469 C 2.722656 -2.605469 2.527344 -2.804688 2.28125 -2.804688 C 2.03125 -2.804688 1.835938 -2.605469 1.835938 -2.355469 C 1.835938 -2.113281 2.03125 -1.914062 2.28125 -1.914062 C 2.527344 -1.914062 2.722656 -2.113281 2.722656 -2.355469 Z M 4.558594 -2.375 C 4.558594 -3.550781 3.796875 -4.738281 2.285156 -4.738281 C 0.753906 -4.738281 0 -3.550781 0 -2.375 C 0 -1.191406 0.753906 0 2.285156 0 C 3.796875 0 4.558594 -1.191406 4.558594 -2.375 Z M 3.671875 -2.355469 C 3.671875 -1.59375 3.203125 -0.828125 2.285156 -0.828125 C 1.355469 -0.828125 0.894531 -1.59375 0.894531 -2.355469 C 0.894531 -3.132812 1.355469 -3.902344 2.285156 -3.902344 C 3.203125 -3.902344 3.671875 -3.132812 3.671875 -2.355469 Z M 3.671875 -2.355469 "/></g></g></g><g fill="#000000" fill-opacity="1"><g transform="translate(59.709195, 30.09868)"><g><path d="M 3.234375 -0.078125 C 2.9375 -0.734375 2.617188 -1.386719 2.320312 -2.054688 C 2.792969 -2.226562 3.191406 -2.605469 3.191406 -3.328125 C 3.191406 -4.726562 1.859375 -4.738281 1.59375 -4.738281 L 0.0585938 -4.738281 C 0.03125 -4.738281 0 -4.707031 0 -4.683594 L 0 -3.878906 L 1.59375 -3.878906 C 1.734375 -3.878906 2.292969 -3.847656 2.292969 -3.328125 C 2.292969 -2.804688 1.789062 -2.78125 1.59375 -2.78125 L 0 -2.78125 L 0 -0.0546875 C 0 -0.03125 0.03125 0 0.0585938 0 L 0.835938 0 C 0.871094 0 0.898438 -0.03125 0.898438 -0.0546875 L 0.898438 -1.914062 L 1.410156 -1.914062 L 2.273438 -0.0351562 C 2.28125 -0.0195312 2.316406 0 2.332031 0 L 3.179688 0 C 3.226562 0 3.25 -0.0351562 3.234375 -0.078125 Z M 3.234375 -0.078125 "/></g></g></g></svg>